<?xml version="1.0" encoding="UTF-8"?>
<svg id="_图层_1" data-name="图层_1" xmlns="http://www.w3.org/2000/svg" version="1.1" viewBox="0 0 595.28 841.89">
  <!-- Generator: Adobe Illustrator 29.0.0, SVG Export Plug-In . SVG Version: 2.1.0 Build 186)  -->
  <defs>
    <style>
      .st0 {
        fill: #6d9acc;
      }

      .st1, .st2 {
        fill: #fff;
      }

      .st3 {
        fill: #9dcf8e;
      }

      .st3, .st2, .st4 {
        stroke-miterlimit: 10;
      }

      .st3, .st4 {
        stroke: #fff;
      }

      .st5 {
        fill: #231815;
      }

      .st2 {
        stroke: #231815;
      }

      .st4 {
        fill: #efed8d;
      }
    </style>
  </defs>
  <rect class="st2" x="-221.64" y="249.96" width="1.89" height="0"/>
  <g>
    <g>
      <g>
        <rect class="st3" x="43.69" y="255.88" width="47.43" height="94.87"/>
        <line class="st3" x1="43.69" y1="327.03" x2="91.12" y2="327.03"/>
        <line class="st3" x1="43.69" y1="303.31" x2="91.12" y2="303.31"/>
        <line class="st3" x1="43.69" y1="279.6" x2="91.12" y2="279.6"/>
        <line class="st3" x1="67.4" y1="255.88" x2="67.4" y2="350.75"/>
      </g>
      <g>
        <path class="st5" d="M58.5,244.59c-.06.34-.12.67-.19,1h1.93v.49h-1v1.73s1.18,0,1.18,0v.51h-1.22c-.02.22-.06.44-.1.67.29.29,1.12,1.31,1.32,1.56l-.35.44c-.22-.33-.75-1.03-1.1-1.47-.24.82-.68,1.63-1.48,2.27-.07-.1-.26-.3-.38-.38,1.1-.88,1.46-2.05,1.57-3.1h-1.36v-.51h1.39v-.4s0-1.32,0-1.32h-.55c-.15.52-.34.99-.55,1.36-.1-.08-.32-.22-.44-.28.41-.66.66-1.65.8-2.65l.51.09ZM64.31,245.44h-3.06v1.31h2.67v2.63h-2.67v1.61h3.2v.53h-3.73v-6.6h3.6v.52ZM61.25,248.88h2.17v-1.62h-2.17v1.62Z"/>
        <path class="st5" d="M67.44,244.83l.08-.02.36.22c-.24.65-.55,1.45-.82,2.08.6.67.75,1.26.75,1.77,0,.42-.1.76-.31.92-.1.07-.25.12-.41.14-.16.02-.37.02-.54,0,0-.14-.06-.35-.14-.49.19.02.35.02.48,0,.1,0,.18-.02.26-.07.13-.09.17-.32.17-.57,0-.45-.15-1-.75-1.66.26-.59.5-1.29.67-1.84h-1.13v6.51h-.5v-7h1.84ZM70.24,249.77v-1.36h-1.07c-.36,0-.62.04-.69.11-.02-.11-.11-.37-.18-.51.14-.04.27-.29.43-.65.1-.21.32-.75.55-1.42h-1.22v-.5h1.37c.1-.31.18-.64.25-.96l.55.12c-.07.28-.15.56-.24.84h2.48v.5h-2.63c-.24.71-.52,1.4-.79,1.97h1.2v-1.21h.54v1.21h1.57v.5h-1.57v1.36h1.8v.51h-1.8v1.56h-.54v-1.56h-2.26v-.51h2.26Z"/>
        <path class="st5" d="M74.94,245.34h.73l2.01,5.88h-.71l-.59-1.85h-2.2l-.59,1.85h-.67l2.01-5.88ZM76.22,248.84l-.3-.96c-.22-.67-.41-1.3-.61-1.99h-.03c-.19.69-.39,1.32-.6,1.99l-.3.96h1.85Z"/>
      </g>
    </g>
    <g>
      <g>
        <rect class="st4" x="107.85" y="255.88" width="71.15" height="94.87"/>
        <line class="st4" x1="107.85" y1="327.03" x2="179.01" y2="327.03"/>
        <line class="st4" x1="107.85" y1="303.31" x2="179.01" y2="303.31"/>
        <line class="st4" x1="107.85" y1="279.6" x2="179.01" y2="279.6"/>
        <line class="st4" x1="155.29" y1="255.88" x2="155.29" y2="350.75"/>
        <line class="st4" x1="131.57" y1="255.88" x2="131.57" y2="350.75"/>
      </g>
      <g>
        <path class="st5" d="M134.49,244.59c-.06.34-.12.67-.19,1h1.93v.49h-1v1.73s1.18,0,1.18,0v.51h-1.22c-.02.22-.06.44-.1.67.29.29,1.12,1.31,1.32,1.56l-.35.44c-.22-.33-.75-1.03-1.1-1.47-.24.82-.68,1.63-1.48,2.27-.07-.1-.26-.3-.38-.38,1.1-.88,1.46-2.05,1.57-3.1h-1.36v-.51h1.39v-.4s0-1.32,0-1.32h-.55c-.15.52-.34.99-.55,1.36-.1-.08-.32-.22-.44-.28.41-.66.66-1.65.8-2.65l.51.09ZM140.3,245.44h-3.06v1.31h2.67v2.63h-2.67v1.61h3.2v.53h-3.73v-6.6h3.6v.52ZM137.24,248.88h2.17v-1.62h-2.17v1.62Z"/>
        <path class="st5" d="M143.43,244.83l.08-.02.36.22c-.24.65-.55,1.45-.82,2.08.6.67.75,1.26.75,1.77,0,.42-.1.76-.31.92-.1.07-.25.12-.41.14-.16.02-.37.02-.54,0,0-.14-.06-.35-.14-.49.19.02.35.02.48,0,.1,0,.18-.02.26-.07.13-.09.17-.32.17-.57,0-.45-.15-1-.75-1.66.26-.59.5-1.29.67-1.84h-1.13v6.51h-.5v-7h1.84ZM146.23,249.77v-1.36h-1.07c-.36,0-.62.04-.69.11-.02-.11-.11-.37-.18-.51.14-.04.27-.29.43-.65.1-.21.32-.75.55-1.42h-1.22v-.5h1.37c.1-.31.18-.64.25-.96l.55.12c-.07.28-.15.56-.24.84h2.48v.5h-2.63c-.24.71-.52,1.4-.79,1.97h1.2v-1.21h.54v1.21h1.57v.5h-1.57v1.36h1.8v.51h-1.8v1.56h-.54v-1.56h-2.26v-.51h2.26Z"/>
        <path class="st5" d="M149.7,245.34h1.71c1.19,0,2,.41,2,1.44,0,.59-.31,1.09-.87,1.28v.03c.72.14,1.21.61,1.21,1.41,0,1.15-.9,1.72-2.22,1.72h-1.83v-5.88ZM151.27,247.86c1.05,0,1.48-.39,1.48-1,0-.72-.49-.99-1.44-.99h-.94v1.99h.91ZM151.43,250.69c1.04,0,1.67-.38,1.67-1.2,0-.76-.59-1.11-1.67-1.11h-1.06v2.31h1.06Z"/>
      </g>
    </g>
    <g>
      <g>
        <g>
          <rect class="st3" x="236.87" y="255.88" width="47.43" height="94.87"/>
          <line class="st3" x1="236.87" y1="327.03" x2="284.31" y2="327.03"/>
          <line class="st3" x1="236.87" y1="303.31" x2="284.31" y2="303.31"/>
          <line class="st3" x1="236.87" y1="279.6" x2="284.31" y2="279.6"/>
          <line class="st3" x1="260.59" y1="255.88" x2="260.59" y2="350.75"/>
        </g>
        <g>
          <rect class="st4" x="284.31" y="255.88" width="71.15" height="94.87"/>
          <line class="st4" x1="284.31" y1="327.03" x2="355.46" y2="327.03"/>
          <line class="st4" x1="284.31" y1="303.31" x2="355.46" y2="303.31"/>
          <line class="st4" x1="284.31" y1="279.6" x2="355.46" y2="279.6"/>
          <line class="st4" x1="331.74" y1="255.88" x2="331.74" y2="350.75"/>
          <line class="st4" x1="308.02" y1="255.88" x2="308.02" y2="350.75"/>
        </g>
      </g>
      <g>
        <path class="st5" d="M269.97,244.49v1.63h.83v.51h-.83v1.65l.75-.25.07.5-.82.28v2.34c0,.32-.07.48-.26.57-.19.09-.5.1-.99.1-.03-.14-.1-.38-.17-.53.35,0,.66,0,.75,0s.14-.03.14-.15v-2.16l-.97.33-.14-.53c.31-.09.69-.2,1.12-.34v-1.82h-1.01v-.51h1.01v-1.63h.52ZM275.17,244.7c-.23.49-.51,1.07-.75,1.5h1.12v.51h-1.02v1.69h1.2v.51h-1.2v2.9h-.53v-2.9h-1.24c-.07,1.02-.4,2.17-1.6,2.96-.07-.11-.24-.3-.36-.39,1.1-.67,1.37-1.69,1.44-2.58h-1.24v-.51h1.25v-1.69h-.99v-.51h2.62c.26-.47.57-1.19.73-1.69l.56.19ZM272.21,244.56c.3.43.62,1,.75,1.36l-.48.22c-.13-.37-.43-.96-.72-1.4l.46-.18ZM272.77,246.71v1.69h1.21v-1.69h-1.21Z"/>
        <path class="st5" d="M277.94,244.49v1.63h.83v.51h-.83v1.68l.74-.24.08.51-.82.27v2.34c0,.3-.07.46-.26.54-.18.09-.47.1-.92.1-.02-.12-.09-.35-.16-.5.33.02.62.02.71,0,.1,0,.14-.03.14-.14v-2.18l-.94.31-.14-.53c.3-.08.67-.19,1.08-.32v-1.84h-.98v-.51h.98v-1.63h.5ZM280.06,249.09h-1.24v-.47h1.53c.16-.3.31-.59.43-.86l.5.1c-.1.25-.23.51-.38.76h2.95v.47h-1c-.16.62-.43,1.12-.83,1.51.63.28,1.2.57,1.6.85l-.36.42c-.4-.29-1-.61-1.67-.92-.63.43-1.49.71-2.66.88-.05-.15-.14-.35-.23-.47,1.01-.11,1.77-.32,2.34-.65-.56-.23-1.15-.44-1.69-.59.22-.29.47-.64.71-1.03ZM282.84,246.09c-.21.38-.46.81-.68,1.14h1.6v.47h-4.83v-.47h2.7c.25-.36.56-.91.71-1.28l.51.14ZM281.18,244.55c.18.24.35.56.47.81h1.89v.47h-4.34v-.47h1.89c-.11-.24-.26-.51-.39-.72l.49-.09ZM280.2,245.94c.25.32.51.75.62,1.03l-.43.22c-.1-.29-.36-.74-.59-1.07l.4-.18ZM280.61,249.09c-.17.28-.35.55-.51.79.45.14.93.31,1.4.51.38-.34.63-.76.79-1.29h-1.69Z"/>
        <path class="st5" d="M290.77,244.56l.46.43c-1.38.33-3.45.55-5.3.67v1.05h5.87v.52h-5.87v.04c0,1.33-.13,3.27-1.05,4.58-.1-.11-.32-.3-.45-.37.87-1.24.95-2.96.95-4.21v-2.06c1.9-.12,4.15-.35,5.39-.66ZM291.2,248.43v3.41h-.56v-.41h-3.44v.42h-.54v-3.42h4.54ZM290.64,250.93v-2h-3.44v2h3.44Z"/>
        <path class="st5" d="M294.73,244.58c-.13.4-.29.85-.43,1.2h1.36v5.23h-2.26v.64h-.5v-5.87h.9c.14-.39.28-.92.35-1.31l.58.11ZM293.4,248.02h1.76v-1.77h-1.76v1.77ZM295.16,250.51v-2.01h-1.76v2.01h1.76ZM297.53,244.56c-.1.41-.22.81-.35,1.2h2.45s0,.21,0,.29c-.13,3.69-.24,4.94-.56,5.32-.17.22-.35.29-.62.31-.26.02-.74,0-1.19-.02-.02-.16-.08-.39-.18-.52.52.04,1,.05,1.19.05.16,0,.26-.02.35-.13.26-.28.39-1.53.5-4.81h-2.11c-.23.55-.49,1.05-.77,1.45-.1-.08-.32-.23-.45-.31.55-.72.98-1.83,1.24-2.95l.52.11ZM297.06,247.56c.47.58,1.03,1.36,1.28,1.83l-.46.29c-.24-.49-.79-1.29-1.24-1.88l.42-.24Z"/>
        <path class="st5" d="M301.79,249.43c-.19.56-.51,1.15-.83,1.53-.09-.07-.27-.22-.39-.27.33-.36.59-.87.76-1.37l.45.11ZM303.79,245.96c-.14.41-.31.87-.46,1.22h1.06v.47h-1.63v.87h1.54v.47h-1.54v2.11c0,.27-.05.39-.22.47-.18.09-.44.09-.83.09-.02-.13-.09-.33-.16-.47.29,0,.53,0,.62,0,.08,0,.1-.02.1-.1v-2.11h-1.63v-.47h1.63v-.87h-1.67v-.47h2.24c.16-.39.35-.95.45-1.32l.5.1ZM302.45,244.46c.16.27.35.62.46.88h1.35v.46h-3.53v-.46h1.61c-.1-.25-.24-.53-.37-.75l.48-.13ZM301.71,245.86c.17.36.31.85.35,1.16l-.47.13c-.03-.32-.16-.82-.32-1.19l.44-.1ZM303.49,249.28c.27.4.55.93.68,1.28l-.39.22c-.13-.35-.41-.92-.66-1.32l.37-.19ZM307.19,244.64l.45.4c-.67.24-1.61.44-2.47.58v1.59h2.74v.5h-.92v4.1h-.51v-4.1h-1.31v.3c0,1.16-.1,2.72-.84,3.77-.09-.1-.31-.27-.42-.33.69-.97.76-2.36.76-3.44v-2.75c.9-.14,1.95-.38,2.52-.62Z"/>
        <path class="st5" d="M309.93,244.59c-.06.34-.12.67-.19,1h1.93v.49h-1v1.73s1.18,0,1.18,0v.51h-1.22c-.02.22-.06.44-.1.67.29.29,1.12,1.31,1.32,1.56l-.35.44c-.22-.33-.75-1.03-1.1-1.47-.24.82-.68,1.63-1.48,2.27-.07-.1-.26-.3-.38-.38,1.1-.88,1.46-2.05,1.56-3.1h-1.36v-.51h1.39v-.4s0-1.32,0-1.32h-.55c-.15.52-.34.99-.55,1.36-.1-.08-.32-.22-.44-.28.41-.66.66-1.65.8-2.65l.51.09ZM315.74,245.44h-3.06v1.31h2.67v2.63h-2.67v1.61h3.2v.53h-3.73v-6.6h3.6v.52ZM312.68,248.88h2.17v-1.62h-2.17v1.62Z"/>
        <path class="st5" d="M318.87,244.83l.08-.02.36.22c-.24.65-.55,1.45-.82,2.08.6.67.75,1.26.75,1.77,0,.42-.1.76-.31.92-.1.07-.25.12-.41.14-.16.02-.37.02-.54,0,0-.14-.06-.35-.14-.49.19.02.35.02.48,0,.1,0,.18-.02.26-.07.13-.09.17-.32.17-.57,0-.45-.15-1-.75-1.66.26-.59.5-1.29.67-1.84h-1.13v6.51h-.5v-7h1.84ZM321.67,249.77v-1.36h-1.07c-.36,0-.62.04-.69.11-.02-.11-.11-.37-.18-.51.14-.04.26-.29.43-.65.1-.21.32-.75.55-1.42h-1.22v-.5h1.37c.1-.31.18-.64.25-.96l.55.12c-.07.28-.15.56-.24.84h2.48v.5h-2.63c-.24.71-.52,1.4-.79,1.97h1.2v-1.21h.54v1.21h1.57v.5h-1.57v1.36h1.8v.51h-1.8v1.56h-.54v-1.56h-2.26v-.51h2.26Z"/>
      </g>
    </g>
    <g>
      <path class="st0" d="M218.96,308.25l-29.55.19c-.15,0-.27-.12-.27-.27v-9.69c0-.15.12-.27.27-.27l29.55.19c.15,0,.27.12.27.27v9.32c0,.15-.12.27-.27.27Z"/>
      <polygon class="st0" points="228.07 303.31 217.61 311.06 217.61 295.57 228.07 303.31"/>
      <g>
        <path class="st1" d="M195.49,300.84v1.17h.66v.22h.74v-.57h-.65v-.3h.65v-.51h.35v.51h.91v-.51h.34v.51h.67v.3h-.67v.57h.79v.32h-1.44v.42h1.23v1.81h-2.73v-1.81h1.17v-.42h-1.41v-.19h-.59v.43c.16.19.57.79.66.93l-.21.28c-.09-.17-.29-.52-.46-.79v2.58h-.34v-2.63c-.19.63-.45,1.23-.71,1.6-.04-.1-.13-.23-.19-.31.34-.46.69-1.33.86-2.09h-.73v-.34h.77v-1.17h.34ZM197.36,305.09c-.3.26-.79.53-1.18.7-.05-.07-.17-.18-.24-.25.4-.16.87-.42,1.11-.64l.32.19ZM196.65,303.72h.84v-.49h-.84v.49ZM196.65,304.49h.84v-.5h-.84v.5ZM198.14,302.22v-.57h-.91v.57h.91ZM197.83,303.72h.9v-.49h-.9v.49ZM197.83,304.49h.9v-.5h-.9v.5ZM198.27,304.91c.35.18.82.46,1.06.65l-.27.23c-.23-.19-.68-.48-1.04-.67l.26-.2Z"/>
        <path class="st1" d="M202.32,300.9c-.12.29-.26.61-.4.87h2.45v3.51c0,.25-.06.37-.24.44-.19.05-.52.06-1.02.06-.02-.1-.07-.27-.13-.38.4.02.78.02.9.01.11,0,.13-.03.13-.13v-3.15h-3.62v3.65h-.36v-4.01h1.49c.13-.29.27-.67.35-.95l.44.08ZM203.25,302.88v1.77h-1.78v.39h-.33v-2.16h2.11ZM201.47,304.33h1.45v-1.12h-1.45v1.12Z"/>
        <path class="st1" d="M206.14,300.84v1.1h.56v.34h-.56v1.11l.5-.17.05.33-.55.19v1.57c0,.22-.05.32-.17.38-.13.06-.33.07-.66.07-.02-.09-.06-.25-.11-.36.24,0,.44,0,.51,0s.09-.02.09-.1v-1.45l-.65.22-.1-.36c.2-.06.46-.13.75-.23v-1.22h-.68v-.34h.68v-1.1h.35ZM209.64,300.98c-.16.33-.34.72-.51,1.01h.76v.35h-.69v1.13h.81v.35h-.81v1.95h-.36v-1.95h-.83c-.05.69-.27,1.46-1.07,1.99-.05-.08-.16-.2-.24-.26.74-.45.92-1.13.97-1.73h-.83v-.35h.84v-1.13h-.66v-.35h1.76c.18-.32.38-.8.49-1.14l.38.13ZM207.65,300.89c.2.29.42.67.5.92l-.32.15c-.09-.25-.29-.65-.49-.94l.31-.12ZM208.03,302.34v1.13h.81v-1.13h-.81Z"/>
        <path class="st1" d="M211.5,300.84v1.1h.56v.34h-.56v1.13l.5-.16.05.34-.55.18v1.58c0,.2-.05.31-.17.36-.12.06-.31.07-.62.06-.01-.08-.06-.24-.11-.33.22.01.42.01.47,0,.06,0,.09-.02.09-.09v-1.47l-.63.2-.1-.36c.2-.05.45-.13.73-.22v-1.24h-.66v-.34h.66v-1.1h.33ZM212.92,303.93h-.84v-.32h1.02c.11-.2.21-.39.29-.58l.33.06c-.07.17-.16.34-.25.51h1.98v.32h-.67c-.11.42-.29.75-.56,1.01.42.19.8.38,1.07.57l-.24.28c-.27-.19-.67-.41-1.12-.61-.42.29-1,.47-1.79.59-.03-.1-.09-.23-.16-.31.68-.08,1.19-.22,1.58-.44-.38-.16-.77-.3-1.13-.4.15-.19.32-.43.47-.69ZM214.79,301.92c-.14.25-.31.54-.46.77h1.07v.32h-3.25v-.32h1.81c.17-.24.38-.61.48-.86l.34.1ZM213.68,300.88c.12.16.24.38.32.54h1.27v.32h-2.92v-.32h1.27c-.08-.16-.18-.34-.26-.49l.33-.06ZM213.02,301.82c.17.22.35.51.42.69l-.29.15c-.07-.19-.24-.5-.4-.72l.27-.12ZM213.3,303.93c-.11.19-.23.37-.34.53.3.1.63.21.94.34.25-.23.43-.51.53-.87h-1.13Z"/>
      </g>
    </g>
  </g>
</svg>