<?xml version="1.0" encoding="UTF-8"?>
<svg id="_图层_1" data-name="图层_1" xmlns="http://www.w3.org/2000/svg" version="1.1" viewBox="0 0 256 256">
  <!-- Generator: Adobe Illustrator 29.0.0, SVG Export Plug-In . SVG Version: 2.1.0 Build 186)  -->
  <defs>
    <style>
      .st0 {
        fill-rule: evenodd;
      }
    </style>
  </defs>
  <path class="st0" d="M189.5,110c.2,1.7.3,3.5.4,5.2.5,7,.8,13.9.7,20.9,0,3.5-.1,7-.3,10.5,0,1.7-.2,3.5-.4,5.2,0,.9-.2,1.7-.2,2.6v1.3c-.1,0-.2.7-.2.7v.3c0,.1,0,.2,0,.3-.2,2-.8,3.9-1.6,5.7-.8,1.8-2,3.5-3.3,4.9-2.7,2.9-6.4,4.9-10.3,5.5,0,0-.1,0-.2,0-.2,0-.3,0-.5,0h-.7c0,0-1.3.2-1.3.2l-2.5.2c-1.7.1-3.4.2-5.1.4-3.4.2-6.8.4-10.2.5-6.8.3-13.6.4-20.4.3-6.8,0-13.6-.3-20.4-.7-3.4-.2-6.8-.4-10.2-.7h-.3s-.2,0-.2,0h-.2c-.2,0-.5,0-.7-.1h-.7c0-.1-.7-.3-.7-.3-1-.2-1.9-.5-2.8-.9-1.8-.7-3.5-1.8-5-3.1-3-2.6-5.2-6.2-6-10.1-.1-.5-.2-1-.3-1.5v-.7c0,0-.2-.7-.2-.7,0-.9-.2-1.7-.2-2.6h0c-.2-1.7-.3-3.5-.4-5.2-.4-7-.5-14-.3-20.9.2-7,.7-13.9,1.4-20.8.2-2,.7-3.9,1.5-5.7.8-1.8,1.9-3.5,3.2-4.9,2.6-2.9,6.2-4.9,10.1-5.5.5,0,1-.2,1.4-.2h.4s.3,0,.3,0h.6s2.6-.2,2.6-.2c1.7-.1,3.4-.2,5.1-.3,2.2-.1,4.5-.2,6.7-.3h0c-.2-.3-.4-.6-.7-.8-1.2-1.5-2.3-3-3.4-4.6l-.8-1.2-.4-.6s0,0,0,0c-.1-.2-.2-.4-.4-.6-.2-.4-.4-.9-.5-1.4,0-.5-.1-1.1,0-1.8.6-2.9,3.2-4.9,6.1-4.5.7,0,1.2.3,1.6.5.4.3.8.6,1.1.9.1.2.3.3.4.5,0,0,0,0,0,0l.4.6.8,1.2c1.1,1.5,2.2,3.1,3.2,4.7,1,1.6,2.1,3.2,3,4.8.4.6.8,1.3,1.1,1.9,4,0,8.1,0,12.1,0,1.2,0,2.5,0,3.7,0,.4-.6.7-1.3,1.1-1.9,1-1.6,2-3.2,3-4.8,1-1.6,2.1-3.1,3.2-4.7l.8-1.2.4-.6s0,0,0,0c.1-.2.3-.3.4-.5.3-.4.7-.7,1.1-.9.4-.3,1-.5,1.6-.5,2.9-.4,5.6,1.6,6.1,4.5.1.7,0,1.2,0,1.8-.1.5-.3,1-.5,1.4-.1.2-.2.4-.3.5,0,0,0,0,0,0l-.4.6-.8,1.2c-1.1,1.5-2.2,3.1-3.4,4.6-.1.2-.3.4-.4.6,0,0-.1.2-.2.3,1.6,0,3.2.1,4.8.2,3.4.2,6.8.3,10.2.6h.2s.2,0,.2,0h.4c.2,0,.5,0,.7.1h0s.4,0,.4,0h.4c.2.1.5.2.7.2.9.2,1.9.5,2.8.9,1.8.7,3.5,1.8,5,3.1,3,2.6,5.1,6.1,5.9,10,0,.2,0,.5.1.7v.4c0,0,.1.4.1.4v.4c0,0,0,.1,0,.2,0,0,0,0,0,.1v.7c.2.9.3,1.7.3,2.6ZM180,146c.2-3.4.3-6.7.3-10,0-6.7-.2-13.4-.7-20-.1-1.7-.3-3.4-.4-5,0-.8-.2-1.6-.3-2.5v-.7c0,0,0,0,0,0v-.2s0-.5,0-.5v-.3c0,0-.1-.2-.1-.2-.3-1.6-1.3-3.1-2.5-4.2-.6-.6-1.4-1-2.1-1.3-.4-.2-.8-.3-1.2-.4h-.1s-.3,0-.3,0h-.3c0,0-.4,0-.4,0h-.1c-3.1-.2-6.3-.4-9.9-.6-6.3-.3-12.8-.4-20-.5h0c-1.2,0-2.4,0-3.6,0-6,0-11.4,0-16.5.2-3.4,0-6.8.2-9.9.4-.3,0-.5,0-.8,0-1.3,0-2.7.1-4.1.2l-2.5.2h-.8c0,0-.3,0-.3,0-.1,0-.3,0-.6,0-1.6.3-3.1,1.1-4.3,2.4-.6.6-1,1.3-1.4,2.1-.3.8-.6,1.6-.7,2.4-.7,6.7-1.2,13.5-1.4,20-.2,6.8,0,13.5.3,20,.1,1.7.2,3.3.4,5,0,.8.1,1.6.2,2.5v.5c0,0,.1.5.1.5,0,.2,0,.4,0,.5h0c.4,1.7,1.3,3.3,2.6,4.4.7.6,1.4,1,2.2,1.3.4.1.8.3,1.1.4h.4c0,0,.4.1.4.1h.4s.5,0,.5,0c3.2.3,6.6.5,9.9.7,6.5.4,13.2.6,19.9.7,1.3,0,2.6,0,3.9,0,5.2,0,10.5-.1,16-.3,3.3-.1,6.7-.3,9.9-.5h.2c1.5-.1,3.2-.2,4.8-.3l2.5-.2h1.1c0,0,.5-.1.5-.1,0,0,.2,0,.3,0,1.6-.3,3.2-1.1,4.3-2.3h0c.6-.7,1.1-1.4,1.4-2.2.4-.8.6-1.6.7-2.5v-.2s.1-1,.1-1v-1.2c.1,0,.1-.1.1-.1,0-.8.1-1.6.2-2.3.1-1.6.2-3.3.3-4.9ZM170.1,123.2c.4.2.8.4,1.2.7,1.4.9,1.7,2.4,1.1,4.1-.6,1.9-2.6,3.6-4.5,3h0c-.4-.2-.8-.3-1.2-.5-.1,0-.2,0-.3-.1-.3-.1-.6-.2-.9-.4h-.1c-.4-.2-.7-.3-1.1-.5-.4-.2-.8-.3-1.2-.5-.4-.2-.8-.3-1.2-.5h0c-.4-.2-.8-.3-1.2-.5l-2.4-1c-1.6-.7-3.2-1.3-4.8-2l-2.4-1c-.4-.2-.8-.3-1.2-.5-.4-.2-.8-.3-1.2-.5h0c-1.7-.7-1.7-2.8-1.2-4.6.5-1.9,2.1-3.2,3.9-2.7.9.3,1.7.5,2.6.8l1.3.4,1.3.4c1.7.6,3.4,1.2,5.1,1.9.7.3,1.5.6,2.2.9h.3c0,.2.1.2.2.2,0,0,.2,0,.2.1h0c.7.3,1.3.6,2,.9.8.4,1.6.7,2.4,1.1.4.2.8.4,1.2.6ZM126.9,123.1h0c-.4.2-.8.3-1.2.5h0c-.4.2-.8.3-1.2.5l-2.4,1c-1.6.6-3.2,1.3-4.8,2l-2.4,1c-.4.2-.7.3-1.1.5h0c-.4.2-.9.4-1.3.6-.4.2-.8.3-1.2.5-.3.1-.6.2-.8.3h0c-.1,0-.2,0-.4.1-.4.2-.8.3-1.2.5-.4.2-.8.3-1.2.4h0c-1.9.7-3.9-1-4.5-3-.5-1.7-.3-3.2,1.1-4.1.4-.2.8-.5,1.2-.7.4-.2.8-.4,1.2-.6.8-.4,1.6-.8,2.4-1.1.7-.3,1.4-.6,2.2-.9h.3c.8-.5,1.7-.8,2.5-1.1,1.7-.7,3.4-1.3,5.1-1.9l1.3-.4,1.3-.4c.9-.3,1.7-.5,2.6-.8,1.9-.5,3.4.7,3.9,2.7.5,1.8.4,3.9-1.2,4.6ZM151.5,135.3c-.8-.2-1.6.2-1.8,1h0c0,.1,0,.4,0,.4v.3c-.1.2-.2.4-.3.6-.1.4-.3.8-.4,1.1-.3.7-.7,1.4-1.1,2-.4.6-.9,1.1-1.4,1.4-.5.3-1,.5-1.5.5-.6,0-1.2,0-1.7-.4-.6-.3-1.1-.7-1.6-1.2-.5-.5-1-1.1-1.4-1.8-.2-.3-.4-.7-.6-1,0-.2-.2-.4-.3-.5v-.3c-.1,0-.2-.2-.2-.2h0c-.3-.8-.9-1.1-1.5-1.1h0c-.6,0-1.2.4-1.5,1h0c0,.1-.1.4-.1.4v.3h-.1c0,.2-.2.4-.3.5-.2.4-.4.7-.6,1-.4.7-.9,1.3-1.4,1.8-.5.5-1,.9-1.6,1.2-.6.3-1.1.4-1.7.4-.6,0-1-.2-1.5-.5-.5-.3-1-.8-1.4-1.4-.4-.6-.8-1.3-1.1-2-.2-.4-.3-.7-.4-1.1,0-.2-.1-.3-.2-.5h0c0,0,0-.4,0-.4v-.3c0,0-.1-.1-.1-.1-.2-.8-1-1.2-1.8-1-.9.2-1.5.9-1.4,1.8v.2s0,.2,0,.2v.4c.1.2.2.5.3.7.1.5.3.9.5,1.4.4.9.8,1.8,1.4,2.7.6.9,1.3,1.7,2.3,2.4.5.3,1,.6,1.6.8.6.2,1.2.3,1.8.3,1.2,0,2.3-.2,3.4-.7,1-.5,1.9-1.2,2.6-2,.6-.6,1.1-1.3,1.5-2,.4.7.9,1.4,1.5,2,.7.8,1.6,1.5,2.6,2,1,.5,2.2.8,3.4.7.6,0,1.2-.1,1.8-.3.6-.2,1.1-.5,1.6-.8,1-.7,1.7-1.5,2.3-2.4.6-.9,1-1.8,1.4-2.7.2-.5.3-.9.5-1.4,0-.2.1-.5.2-.7v-.4c0,0,.1-.2.1-.2v-.2c.2-.9-.4-1.6-1.3-1.8Z"/>
</svg>