<?xml version="1.0" encoding="UTF-8"?>
<svg id="_图层_1" data-name="图层_1" xmlns="http://www.w3.org/2000/svg" version="1.1" viewBox="0 0 76.9 88.2">
  <!-- Generator: Adobe Illustrator 29.0.0, SVG Export Plug-In . SVG Version: 2.1.0 Build 186)  -->
  <defs>
    <style>
      .st0 {
        fill: #fe2c55;
      }

      .st1 {
        fill: #fff;
      }

      .st2 {
        fill: #00faf0;
      }
    </style>
  </defs>
  <rect x="14.2" y="25.5" width="38.7" height="38.7" rx="7.1" ry="7.1"/>
  <g>
    <path class="st2" d="M30.6,41.6v-1.2c-.4,0-.8,0-1.2,0-5.1,0-9.3,4.1-9.3,9.2s1.6,5.9,3.9,7.6c-1.5-1.7-2.5-3.9-2.5-6.3,0-5,4-9.1,9-9.3Z"/>
    <path class="st2" d="M30.8,55c2.3,0,4.1-1.8,4.2-4.1v-20.1h3.7c0-.4-.1-.8-.1-1.3h-5v20.1c0,2.3-1.9,4.1-4.2,4.1s-1.4-.2-2-.5c.8,1.1,2,1.8,3.4,1.8Z"/>
    <path class="st2" d="M45.6,37.7v-1.1c-1.4,0-2.7-.4-3.8-1.1,1,1.1,2.3,1.9,3.8,2.3Z"/>
    <path class="st0" d="M41.8,35.4c-1.1-1.2-1.7-2.8-1.7-4.6h-1.3c.4,1.9,1.5,3.5,3.1,4.6Z"/>
    <path class="st0" d="M29.3,45.3c-2.3,0-4.2,1.9-4.2,4.2s.9,3,2.3,3.7c-.5-.7-.8-1.5-.8-2.5,0-2.3,1.9-4.2,4.2-4.2s.9,0,1.2.2v-5.1c-.4,0-.8,0-1.2,0h-.2v3.9c-.4-.1-.8-.2-1.2-.2Z"/>
    <g>
      <path class="st0" d="M45.6,37.7v3.9c-2.6,0-5-.8-7-2.3v10.2c0,5.1-4.1,9.2-9.3,9.2s-3.8-.6-5.3-1.7c1.7,1.8,4.1,3,6.8,3,5.1,0,9.3-4.1,9.3-9.2v-10.2c2,1.4,4.4,2.3,7,2.3v-5c-.5,0-1,0-1.5-.2Z"/>
      <path class="st1" d="M38.6,49.5v-10.2c2,1.4,4.4,2.3,7,2.3v-3.9c-1.5-.3-2.8-1.1-3.8-2.3-1.6-1-2.7-2.7-3.1-4.6h-3.7v20.1c0,2.3-1.9,4.1-4.2,4.1s-2.7-.7-3.4-1.8c-1.3-.7-2.3-2.1-2.3-3.7,0-2.3,1.9-4.2,4.2-4.2s.9,0,1.2.2v-3.9c-5,.1-9,4.2-9,9.2s.9,4.6,2.5,6.3c1.5,1.1,3.3,1.7,5.3,1.7,5.1,0,9.2-4.1,9.2-9.2Z"/>
    </g>
  </g>
</svg>