<?xml version="1.0" encoding="UTF-8"?>
<svg id="_图层_1" data-name="图层 1" xmlns="http://www.w3.org/2000/svg" viewBox="0 0 198.91 200">
  <defs>
    <style>
      .cls-1 {
        fill: #fff;
      }
    </style>
  </defs>
  <rect width="198.91" height="200" rx="46.62" ry="46.62"/>
  <g>
    <path class="cls-1" d="M131.07,77.5c-18.37-1.23-40.42,8.47-47.38,26.63-3.3,8.61-2.18,16.46-1.12,25.37l-21.2-2.99-17.4,8.99,3.82-15.3c-8.09-7.09-15.7-15.66-18.39-26.48-5.34-21.55,8.39-41.36,27.74-49.4,27.82-11.56,68.18.32,73.92,33.18ZM104.61,68.77c0-3.73-2.99-6.76-6.69-6.76s-6.69,3.03-6.69,6.76,2.99,6.76,6.69,6.76,6.69-3.03,6.69-6.76ZM69.2,69.07c0-3.74-3-6.77-6.7-6.77s-6.7,3.03-6.7,6.77,3,6.77,6.7,6.77,6.7-3.03,6.7-6.77Z"/>
    <path class="cls-1" d="M157.79,158.5l-14.33-6.57c-13.85,4.14-28.4,3.37-41.02-4-25.12-14.67-25.36-47.49-.1-61.94,42.83-24.5,95.73,24.35,51.8,60.99l3.64,11.52ZM118.99,105.08c0-2.97-2.38-5.38-5.32-5.38s-5.32,2.41-5.32,5.38,2.38,5.38,5.32,5.38,5.32-2.41,5.32-5.38ZM147.33,105.27c0-2.91-2.34-5.28-5.22-5.28s-5.22,2.36-5.22,5.28,2.34,5.28,5.22,5.28,5.22-2.36,5.22-5.28Z"/>
    <ellipse cx="97.92" cy="68.77" rx="6.69" ry="6.76"/>
    <ellipse cx="62.51" cy="69.07" rx="6.7" ry="6.77"/>
    <ellipse cx="113.67" cy="105.08" rx="5.32" ry="5.38"/>
  </g>
</svg>