<?xml version="1.0" encoding="UTF-8"?>
<svg id="_图层_1" xmlns="http://www.w3.org/2000/svg" version="1.1" viewBox="0 0 464.5 158.5">
  <!-- Generator: Adobe Illustrator 29.0.0, SVG Export Plug-In . SVG Version: 2.1.0 Build 186)  -->
  <defs>
    <style>
      .st0 {
        fill: #231815;
      }

      .st1 {
        fill: #fff;
      }

      .st2 {
        fill: none;
      }

      .st2, .st3, .st4 {
        stroke: #fff;
        stroke-miterlimit: 10;
      }

      .st5 {
        fill: #61c0bf;
      }

      .st3 {
        fill: #ffd3b6;
      }

      .st4 {
        fill: #dcedc1;
      }
    </style>
  </defs>
  <g>
    <rect class="st4" x=".5" y="17" width="70.5" height="141"/>
    <line class="st2" x1=".5" y1="122.8" x2="71" y2="122.8"/>
    <line class="st2" x1=".5" y1="87.5" x2="71" y2="87.5"/>
    <line class="st2" x1=".5" y1="52.3" x2="71" y2="52.3"/>
    <line class="st2" x1="35.7" y1="17" x2="35.7" y2="158"/>
  </g>
  <g>
    <path class="st0" d="M22.5.2c0,.5-.2,1-.3,1.5h2.9v.7h-1.5v2.6h1.8v.8h-1.8c0,.3,0,.7-.1,1,.4.4,1.7,1.9,2,2.3l-.5.7c-.3-.5-1.1-1.5-1.6-2.2-.4,1.2-1,2.4-2.2,3.4l-.6-.6c1.6-1.3,2.2-3,2.3-4.6h-2v-.8h2.1v-2.6h-.8c-.2.8-.5,1.5-.8,2-.1,0-.5-.3-.7-.4.6-1,1-2.5,1.2-3.9h.8s-.2,0-.2.1ZM31.2,1.5h-4.5v1.9h4v3.9h-4v2.4h4.8v.8h-5.5V.7h5.4v.8s-.2,0-.2,0ZM26.6,6.6h3.2v-2.4h-3.2v2.4Z"/>
    <path class="st0" d="M35.8.6h0l.5.3c-.4,1-.8,2.2-1.2,3.1.9,1,1.1,1.9,1.1,2.6s0,1.1-.5,1.4c0,.1-.4.2-.6.2h-.8c0-.2,0-.5-.2-.7h1.1c.2,0,.3-.5.3-.8,0-.7-.2-1.5-1.1-2.5.4-.9.7-1.9,1-2.7h-1.7v9.7h-.7V.6h2.8ZM40,7.9v-2h-1.6c-.5,0-.9,0-1,.2,0-.2-.2-.6-.3-.8.2,0,.4-.4.6-1s.5-1.1.8-2.1h-1.8v-.7h2c0-.5.3-1,.4-1.4l.8.2c0,.4-.2.8-.4,1.2h3.7v.7h-3.9c-.4,1.1-.8,2.1-1.2,2.9h1.8v-1.8h.8v1.8h2.3v.7h-2.3v2h2.7v.8h-2.7v2.3h-.8v-2.3h-3.4v-.8h3.5Z"/>
    <path class="st0" d="M47,1.3h1.1l3,8.7h-1.1l-.9-2.8h-3.3l-.9,2.8h-1l3-8.7h.1ZM48.9,6.5l-.4-1.4c-.3-1-.6-1.9-.9-3h0c-.3,1-.6,2-.9,3l-.4,1.4h2.8s-.2,0-.2,0Z"/>
  </g>
  <g>
    <rect class="st3" x="95.9" y="17" width="105.8" height="141"/>
    <line class="st2" x1="95.9" y1="122.8" x2="201.7" y2="122.8"/>
    <line class="st2" x1="95.9" y1="87.5" x2="201.7" y2="87.5"/>
    <line class="st2" x1="95.9" y1="52.3" x2="201.7" y2="52.3"/>
    <line class="st2" x1="166.4" y1="17" x2="166.4" y2="158"/>
    <line class="st2" x1="131.1" y1="17" x2="131.1" y2="158"/>
  </g>
  <g>
    <path class="st0" d="M135.5.2c0,.5-.2,1-.3,1.5h2.9v.7h-1.5v2.6h1.8v.8h-1.8c0,.3,0,.7-.1,1,.4.4,1.7,1.9,2,2.3l-.5.7c-.3-.5-1.1-1.5-1.6-2.2-.4,1.2-1,2.4-2.2,3.4-.1-.1-.4-.4-.6-.6,1.6-1.3,2.2-3,2.3-4.6h-2v-.8h2.1v-2.6h-.8c-.2.8-.5,1.5-.8,2-.1,0-.5-.3-.7-.4.6-1,1-2.5,1.2-3.9h.8-.2q0,0,0,.1ZM144.1,1.5h-4.5v1.9h4v3.9h-4v2.4h4.8v.8h-5.5V.7h5.4v.8h-.2ZM139.6,6.6h3.2v-2.4h-3.2v2.4Z"/>
    <path class="st0" d="M148.8.6h.1l.5.3c-.4,1-.8,2.2-1.2,3.1.9,1,1.1,1.9,1.1,2.6s-.1,1.1-.5,1.4c-.1.1-.4.2-.6.2h-.8c0-.2,0-.5-.2-.7h1.1c.2,0,.3-.5.3-.8,0-.7-.2-1.5-1.1-2.5.4-.9.7-1.9,1-2.7h-1.7v9.7h-.7V.6h2.7,0ZM152.9,7.9v-2h-1.6c-.5,0-.9,0-1,.2,0-.2-.2-.6-.3-.8.2,0,.4-.4.6-1s.5-1.1.8-2.1h-1.8v-.7h2c.1-.5.3-1,.4-1.4l.8.2c-.1.4-.2.8-.4,1.2h3.7v.7h-3.9c-.4,1.1-.8,2.1-1.2,2.9h1.8v-1.8h.8v1.8h2.3v.7h-2.3v2h2.7v.8h-2.7v2.3h-.8v-2.3h-3.4v-.8h3.5,0Z"/>
    <path class="st0" d="M158.1,1.3h2.5c1.8,0,3,.6,3,2.1s-.5,1.6-1.3,1.9h0c1.1.3,1.8,1,1.8,2.1,0,1.7-1.3,2.6-3.3,2.6h-2.7V1.3h0ZM160.4,5.1c1.6,0,2.2-.6,2.2-1.5s-.7-1.5-2.1-1.5h-1.4v3h1.4,0ZM160.7,9.3c1.5,0,2.5-.6,2.5-1.8s-.9-1.7-2.5-1.7h-1.6v3.4h1.6Z"/>
  </g>
  <g>
    <rect class="st4" x="287.7" y="17" width="70.5" height="141"/>
    <line class="st2" x1="287.7" y1="122.8" x2="358.2" y2="122.8"/>
    <line class="st2" x1="287.7" y1="87.5" x2="358.2" y2="87.5"/>
    <line class="st2" x1="287.7" y1="52.3" x2="358.2" y2="52.3"/>
    <line class="st2" x1="323" y1="17" x2="323" y2="158"/>
  </g>
  <g>
    <rect class="st3" x="358.2" y="17" width="105.8" height="141"/>
    <line class="st2" x1="358.2" y1="122.8" x2="464" y2="122.8"/>
    <line class="st2" x1="358.2" y1="87.5" x2="464" y2="87.5"/>
    <line class="st2" x1="358.2" y1="52.3" x2="464" y2="52.3"/>
    <line class="st2" x1="428.7" y1="17" x2="428.7" y2="158"/>
    <line class="st2" x1="393.5" y1="17" x2="393.5" y2="158"/>
  </g>
  <g>
    <path class="st0" d="M336.9,0v2.4h1.2v.8h-1.2v2.5l1.1-.4v.7c.1,0-1.1.4-1.1.4v3.5c0,.5-.1.7-.4.8s-.7.1-1.5.1c0-.2-.1-.6-.3-.8h1.1c.1,0,.2,0,.2-.2v-3.2l-1.4.5-.2-.8c.5,0,1-.3,1.7-.5v-2.7h-1.5v-.8h1.5V0h.8,0ZM344.6.4c-.3.7-.8,1.6-1.1,2.2h1.7v.8h-1.5v2.5h1.8v.8h-1.8v4.3h-.8v-4.3h-1.8c-.1,1.5-.6,3.2-2.4,4.4-.1-.2-.4-.4-.5-.6,1.6-1,2-2.5,2.1-3.8h-1.8v-.8h1.9v-2.5h-1.5v-.8h3.9c.4-.7.8-1.8,1.1-2.5l.8.3h-.1ZM340.2.2c.4.6.9,1.5,1.1,2l-.7.3c-.2-.6-.6-1.4-1.1-2.1l.7-.3h0ZM341.1,3.4v2.5h1.8v-2.5h-1.8Z"/>
    <path class="st0" d="M348.8,0v2.4h1.2v.8h-1.2v2.5l1.1-.4v.8c.1,0-1.1.4-1.1.4v3.5c0,.4-.1.7-.4.8s-.7.1-1.4.1c0-.2-.1-.5-.2-.7h1.1c.1,0,.2,0,.2-.2v-3.2l-1.4.5-.2-.8c.4,0,1-.3,1.6-.5v-2.7h-1.5v-.8h1.5V0h.7,0ZM351.9,6.9h-1.8v-.7h2.3c.2-.4.5-.9.6-1.3h.7c-.1.5-.3.9-.6,1.3h4.4v.7h-1.5c-.2.9-.6,1.7-1.2,2.2.9.4,1.8.8,2.4,1.3l-.5.6c-.6-.4-1.5-.9-2.5-1.4-.9.6-2.2,1.1-4,1.3,0-.2-.2-.5-.3-.7,1.5-.2,2.6-.5,3.5-1-.8-.3-1.7-.7-2.5-.9.3-.4.7-1,1.1-1.5h-.1ZM356,2.5c-.3.6-.7,1.2-1,1.7h2.4v.7h-7.2v-.7h4c.4-.5.8-1.4,1.1-1.9l.8.2h0ZM353.6.2c.3.4.5.8.7,1.2h2.8v.7h-6.5v-.7h2.8c-.2-.4-.4-.8-.6-1.1h.7s.1,0,.1-.1ZM352.1,2.2c.4.5.8,1.1.9,1.5l-.6.3c-.1-.4-.5-1.1-.9-1.6l.6-.3h0ZM352.7,6.9c-.3.4-.5.8-.8,1.2.7.2,1.4.5,2.1.8.6-.5.9-1.1,1.2-1.9h-2.5Z"/>
    <path class="st0" d="M367.8.2l.7.6c-2.1.5-5.1.8-7.9,1v1.6h8.7v.8h-8.7c0,2-.2,4.9-1.6,6.9-.1-.2-.5-.4-.7-.6,1.3-1.8,1.4-4.4,1.4-6.3V1.1c2.8-.2,6.2-.5,8-1h.1ZM368.5,5.9v5.1h-.8v-.6h-5.1v.6h-.8v-5.1h6.7,0ZM367.6,9.6v-3h-5.1v3h5.1Z"/>
    <path class="st0" d="M373.7.2c-.2.6-.4,1.3-.6,1.8h2v7.8h-3.4v1h-.7V2h1.3c.2-.6.4-1.4.5-1.9l.9.2h0ZM371.7,5.3h2.6v-2.6h-2.6v2.6ZM374.4,9v-3h-2.6v3h2.6ZM377.9.2c-.1.6-.3,1.2-.5,1.8h3.6v.4c-.2,5.5-.4,7.3-.8,7.9-.3.3-.5.4-.9.5h-1.8c0-.2-.1-.6-.3-.8h1.8c.3,0,.4,0,.5-.2.4-.4.6-2.3.7-7.2h-3.1c-.3.8-.7,1.6-1.1,2.2-.1,0-.5-.3-.7-.5.8-1.1,1.5-2.7,1.8-4.4l.8.2h0ZM377.2,4.6c.7.9,1.5,2,1.9,2.7l-.7.4c-.4-.7-1.2-1.9-1.8-2.8l.6-.4h0Z"/>
    <path class="st0" d="M384.2,7.4c-.3.8-.8,1.7-1.2,2.3-.1-.1-.4-.3-.6-.4.5-.5.9-1.3,1.1-2l.7.2h0ZM387.2,2.3c-.2.6-.5,1.3-.7,1.8h1.6v.7h-2.4v1.3h2.3v.7h-2.3v3.1c0,.4,0,.6-.3.7-.3.1-.7.1-1.2.1,0-.2-.1-.5-.2-.7h.9s.1,0,.1-.1v-3.1h-2.4v-.7h2.4v-1.3h-2.5v-.7h3.3c.2-.6.5-1.4.7-2h.7s0,.2,0,.2ZM385.2,0c.2.4.5.9.7,1.3h2v.7h-5.2v-.7h2.4c-.1-.4-.4-.8-.6-1.1C384.5.2,385.2,0,385.2,0ZM384.1,2.1c.3.5.5,1.3.5,1.7l-.7.2c0-.5-.2-1.2-.5-1.8h.7ZM386.7,7.2c.4.6.8,1.4,1,1.9l-.6.3c-.2-.5-.6-1.4-1-2l.6-.3h0ZM392.2.3l.7.6c-1,.4-2.4.7-3.7.9v2.4h4.1v.7h-1.4v6.1h-.8v-6.1h-1.9v.4c0,1.7-.1,4-1.2,5.6-.1-.1-.5-.4-.6-.5,1-1.4,1.1-3.5,1.1-5.1V1.2c1.3-.2,2.9-.6,3.7-.9h0Z"/>
    <path class="st0" d="M396.3.2c0,.5-.2,1-.3,1.5h2.9v.7h-1.5v2.6h1.8v.8h-1.8c0,.3,0,.7-.1,1,.4.4,1.7,1.9,2,2.3l-.5.7c-.3-.5-1.1-1.5-1.6-2.2-.4,1.2-1,2.4-2.2,3.4-.1-.1-.4-.4-.6-.6,1.6-1.3,2.2-3,2.3-4.6h-2v-.8h2.1v-2.6h-.8c-.2.8-.5,1.5-.8,2-.1,0-.5-.3-.7-.4.6-1,1-2.5,1.2-3.9h.8-.2q0,0,0,.1ZM404.9,1.5h-4.5v1.9h4v3.9h-4v2.4h4.8v.8h-5.5V.7h5.4v.8h-.2,0ZM400.4,6.6h3.2v-2.4h-3.2v2.4Z"/>
    <path class="st0" d="M409.6.6h.1l.5.3c-.4,1-.8,2.2-1.2,3.1.9,1,1.1,1.9,1.1,2.6s-.1,1.1-.5,1.4c-.1.1-.4.2-.6.2h-.8c0-.2,0-.5-.2-.7h1.1c.2,0,.3-.5.3-.8,0-.7-.2-1.5-1.1-2.5.4-.9.7-1.9,1-2.7h-1.7v9.7h-.7V.6h2.7ZM413.8,7.9v-2h-1.6c-.5,0-.9,0-1,.2,0-.2-.2-.6-.3-.8.2,0,.4-.4.6-1s.5-1.1.8-2.1h-1.8v-.7h2c.1-.5.3-1,.4-1.4l.8.2c-.1.4-.2.8-.4,1.2h3.7v.7h-3.9c-.4,1.1-.8,2.1-1.2,2.9h1.8v-1.8h.8v1.8h2.3v.7h-2.3v2h2.7v.8h-2.7v2.3h-.8v-2.3h-3.4v-.8h3.5Z"/>
  </g>
  <path class="st5" d="M261.1,94.9l-43.9.3c-.2,0-.4-.2-.4-.4v-14.4c0-.2.2-.4.4-.4l43.9.3c.2,0,.4.2.4.4v13.9c0,.2-.2.4-.4.4h0Z"/>
  <polygon class="st5" points="274.6 87.5 259.1 99 259.1 76 274.6 87.5"/>
  <g>
    <path class="st1" d="M225.3,83.5v1.8h.9v.3h1.1v-.7h-1v-.7h1v-.7h.8v.7h1.2v-.7h.8v.7h1v.7h-1v.7h1.2v.7h-2.2v.5h1.9v3h-4.5v-3h1.8v-.5h-2.2v-.3h-.9v.5c.2.3.9,1.2,1,1.5l-.4.6c-.1-.3-.4-.7-.6-1.1v3.9h-.8v-3.7c-.3.8-.6,1.6-1,2.1,0-.2-.3-.5-.4-.7.5-.7,1-2,1.3-3.1h-1.1v-.8h1.1v-1.8h1,0ZM228.3,90.4c-.5.4-1.3.9-1.9,1.1-.1-.2-.4-.4-.5-.5.6-.2,1.4-.7,1.7-1l.7.4ZM227.2,88.1h1.1v-.6h-1.1v.6ZM227.2,89.3h1.1v-.6h-1.1v.6ZM229.3,85.7v-.7h-1.2v.7h1.2ZM229,88.1h1.2v-.6h-1.2v.6ZM229,89.3h1.2v-.6h-1.2v.6ZM229.7,90c.5.3,1.3.7,1.6,1l-.6.5c-.3-.3-1.1-.8-1.6-1.1l.6-.4Z"/>
    <path class="st1" d="M236.3,83.7c-.2.4-.4.9-.6,1.3h3.7v5.5c0,.5-.1.7-.4.9h-1.7c0-.2-.2-.6-.3-.8h1.3c.1,0,.2,0,.2-.2v-4.7h-5.4v5.7h-.8v-6.5h2.4c.2-.5.4-1,.5-1.5l1,.2h.1ZM237.5,86.8v2.9h-2.6v.6h-.7v-3.5h3.4,0ZM234.9,89h1.9v-1.5h-1.9v1.5Z"/>
    <path class="st1" d="M242.3,83.6v1.7h.8v.8h-.8v1.5l.7-.2v.7c.1,0-.7.3-.7.3v2.3c0,.4,0,.6-.3.8-.2,0-.6.2-1.1.2,0-.2-.1-.6-.2-.8h.9v-2l-.9.3-.2-.8,1.1-.3v-1.7h-1v-.8h1v-1.7h.8v-.2h-.1ZM247.9,83.8c-.3.5-.5,1-.8,1.5h1v.8h-1v1.6h1.2v.8h-1.2v3.1h-.8v-3.1h-1.1c0,1.1-.5,2.3-1.7,3.1-.1-.2-.4-.4-.6-.6,1-.7,1.3-1.7,1.4-2.6h-1.2v-.8h1.3v-1.6h-1v-.8h1.2c-.1-.4-.4-1-.7-1.5l.7-.3c.3.4.6,1.1.8,1.5l-.6.3h1.5c.3-.5.6-1.2.7-1.8l.9.3h0ZM245.3,86.1v1.6h1.1v-1.6h-1.1Z"/>
    <path class="st1" d="M250.8,83.6v1.7h.8v.8h-.8v1.5l.7-.2v.7c.1,0-.7.3-.7.3v2.3c0,.4,0,.6-.3.7-.2,0-.6.2-1.1.2,0-.2-.1-.5-.2-.8h.8v-2.1l-.9.3-.2-.8c.3,0,.7-.2,1.1-.3v-1.7h-1v-.8h1v-1.7h.8,0ZM252.8,88.6h-1.2v-.7h1.6c.2-.3.3-.6.4-.9h.7c0,.4-.2.6-.3.9h3v.7h-1c-.2.6-.4,1.1-.8,1.5.6.3,1.2.6,1.6.8l-.5.6c-.4-.3-1-.6-1.7-.9-.7.4-1.6.7-2.8.9,0-.2-.2-.5-.3-.7,1,0,1.7-.3,2.3-.5-.6-.2-1.2-.4-1.7-.6.2-.3.5-.6.7-1h0ZM256,85.3c-.2.4-.4.7-.6,1h1.5v.7h-5.2v-.7h1.4c-.1-.3-.3-.7-.5-1l.6-.2c.2.3.5.8.6,1l-.5.2h1.3c.2-.4.5-.9.7-1.3l.7.2h0ZM254.3,83.6c.2.2.3.5.4.8h2v.7h-4.7v-.7h1.9c-.1-.2-.2-.5-.3-.7h.8-.1ZM253.7,88.6c-.1.2-.3.5-.4.7.4,0,.9.3,1.3.5.3-.3.5-.7.7-1.2h-1.6Z"/>
  </g>
</svg>