<?xml version="1.0" encoding="UTF-8"?>
<svg id="_图层_1" xmlns="http://www.w3.org/2000/svg" version="1.1" viewBox="0 0 465.5 193.3">
  <!-- Generator: Adobe Illustrator 29.0.0, SVG Export Plug-In . SVG Version: 2.1.0 Build 186)  -->
  <defs>
    <style>
      .st0 {
        fill: #231815;
      }

      .st1 {
        fill: #fff;
      }

      .st2 {
        fill: #ffaaa6;
      }

      .st3 {
        fill: #ffd3b6;
      }

      .st3, .st4 {
        stroke: #fff;
        stroke-miterlimit: 10;
      }

      .st4 {
        fill: #dcedc1;
      }
    </style>
  </defs>
  <g>
    <g>
      <path class="st0" d="M40.1,25.3c0,.5-.2,1-.3,1.5h2.9v.7h-1.5v2.6h1.8v.8h-1.8c0,.3,0,.7-.1,1,.4.4,1.7,1.9,2,2.3l-.5.7c-.3-.5-1.1-1.5-1.6-2.2-.4,1.2-1,2.4-2.2,3.4l-.6-.6c1.6-1.3,2.2-3,2.3-4.6h-2v-.8h2.1v-2.6h-.8c-.2.8-.5,1.5-.8,2-.1,0-.5-.3-.7-.4.6-1,1-2.5,1.2-3.9h.8s-.2,0-.2.1ZM48.8,26.6h-4.5v1.9h4v3.9h-4v2.4h4.8v.8h-5.5v-9.8h5.4v.8s-.2,0-.2,0ZM44.2,31.7h3.2v-2.4h-3.2v2.4Z"/>
      <path class="st0" d="M53.4,25.7h0l.5.3c-.4,1-.8,2.2-1.2,3.1.9,1,1.1,1.9,1.1,2.6s0,1.1-.5,1.4c0,.1-.4.2-.6.2h-.8c0-.2,0-.5-.2-.7h1.1c.2,0,.3-.5.3-.8,0-.7-.2-1.5-1.1-2.5.4-.9.7-1.9,1-2.7h-1.7v9.7h-.7v-10.6h2.8ZM57.6,33v-2h-1.6c-.5,0-.9,0-1,.2,0-.2-.2-.6-.3-.8.2,0,.4-.4.6-1s.5-1.1.8-2.1h-1.8v-.7h2c0-.5.3-1,.4-1.4l.8.2c0,.4-.2.8-.4,1.2h3.7v.7h-3.9c-.4,1.1-.8,2.1-1.2,2.9h1.8v-1.8h.8v1.8h2.3v.7h-2.3v2h2.7v.8h-2.7v2.3h-.8v-2.3h-3.4v-.8h3.5Z"/>
      <path class="st0" d="M64.6,26.4h1.1l3,8.7h-1.1l-.9-2.8h-3.3l-.9,2.8h-1l3-8.7s0,0,.1,0ZM66.5,31.6l-.4-1.4c-.3-1-.6-1.9-.9-3h0c-.3,1-.6,2-.9,3l-.4,1.4h2.8s-.2,0-.2,0Z"/>
    </g>
    <g>
      <rect class="st3" x=".5" y="41.2" width="105.8" height="105.8"/>
      <line class="st3" x1="106.3" y1="76.5" x2=".5" y2="76.5"/>
      <line class="st3" x1="106.3" y1="111.7" x2=".5" y2="111.7"/>
      <line class="st3" x1="35.8" y1="147" x2="35.8" y2="41.2"/>
      <line class="st3" x1="71" y1="147" x2="71" y2="41.2"/>
    </g>
  </g>
  <g>
    <g>
      <path class="st0" d="M177.1,42.3c0,.5-.2,1-.3,1.5h2.9v.7h-1.5v2.6h1.8v.8h-1.8c0,.3,0,.7-.1,1,.4.4,1.7,1.9,2,2.3l-.5.7c-.3-.5-1.1-1.5-1.6-2.2-.4,1.2-1,2.4-2.2,3.4-.1-.1-.4-.4-.6-.6,1.6-1.3,2.2-3,2.3-4.6h-2v-.8h2.1v-2.6h-.8c-.2.8-.5,1.5-.8,2-.1,0-.5-.3-.7-.4.6-1,1-2.5,1.2-3.9h.8-.2q0,0,0,.1ZM185.7,43.6h-4.5v1.9h4v3.9h-4v2.4h4.8v.8h-5.5v-9.8h5.4v.8h-.2ZM181.2,48.7h3.2v-2.4h-3.2v2.4Z"/>
      <path class="st0" d="M190.4,42.7h.1l.5.3c-.4,1-.8,2.2-1.2,3.1.9,1,1.1,1.9,1.1,2.6s-.1,1.1-.5,1.4c-.1.1-.4.2-.6.2h-.8c0-.2,0-.5-.2-.7h1.1c.2,0,.3-.5.3-.8,0-.7-.2-1.5-1.1-2.5.4-.9.7-1.9,1-2.7h-1.7v9.7h-.7v-10.6h2.7,0ZM194.5,50v-2h-1.6c-.5,0-.9,0-1,.2,0-.2-.2-.6-.3-.8.2,0,.4-.4.6-1s.5-1.1.8-2.1h-1.8v-.7h2c.1-.5.3-1,.4-1.4l.8.2c-.1.4-.2.8-.4,1.2h3.7v.7h-3.9c-.4,1.1-.8,2.1-1.2,2.9h1.8v-1.8h.8v1.8h2.3v.7h-2.3v2h2.7v.8h-2.7v2.3h-.8v-2.3h-3.4v-.8h3.5,0Z"/>
      <path class="st0" d="M199.7,43.4h2.5c1.8,0,3,.6,3,2.1s-.5,1.6-1.3,1.9h0c1.1.3,1.8,1,1.8,2.1,0,1.7-1.3,2.6-3.3,2.6h-2.7v-8.7h0ZM202,47.2c1.6,0,2.2-.6,2.2-1.5s-.7-1.5-2.1-1.5h-1.4v3h1.4,0ZM202.3,51.4c1.5,0,2.5-.6,2.5-1.8s-.9-1.7-2.5-1.7h-1.6v3.4h1.6Z"/>
    </g>
    <g>
      <rect class="st4" x="137.5" y="58.8" width="105.8" height="70.5"/>
      <line class="st4" x1="243.3" y1="94.1" x2="137.5" y2="94.1"/>
      <line class="st4" x1="172.8" y1="129.4" x2="172.8" y2="58.8"/>
      <line class="st4" x1="208" y1="129.4" x2="208" y2="58.8"/>
    </g>
  </g>
  <g>
    <g>
      <path class="st0" d="M373.2,0v2.4h1.2v.8h-1.2v2.5l1.1-.4v.7c.1,0-1.1.4-1.1.4v3.5c0,.5-.1.7-.4.8s-.7.1-1.5.1c0-.2-.1-.6-.3-.8h1.1c.1,0,.2,0,.2-.2v-3.2l-1.4.5-.2-.8c.5,0,1-.3,1.7-.5v-2.7h-1.5v-.8h1.5V0h.8,0ZM380.9.5c-.3.7-.8,1.6-1.1,2.2h1.7v.8h-1.5v2.5h1.8v.8h-1.8v4.3h-.8v-4.3h-1.8c-.1,1.5-.6,3.2-2.4,4.4-.1-.2-.4-.4-.5-.6,1.6-1,2-2.5,2.1-3.8h-1.8v-.8h1.9v-2.5h-1.5v-.8h3.9c.4-.7.8-1.8,1.1-2.5l.8.3h-.1ZM376.5.3c.4.6.9,1.5,1.1,2l-.7.3c-.2-.6-.6-1.4-1.1-2.1l.7-.3h0ZM377.4,3.5v2.5h1.8v-2.5h-1.8Z"/>
      <path class="st0" d="M385.1,0v2.4h1.2v.8h-1.2v2.5l1.1-.4v.8c.1,0-1.1.4-1.1.4v3.5c0,.4-.1.7-.4.8s-.7.1-1.4.1c0-.2-.1-.5-.2-.7h1.1c.1,0,.2,0,.2-.2v-3.2l-1.4.5-.2-.8c.4,0,1-.3,1.6-.5v-2.7h-1.5v-.8h1.5V0h.7,0ZM388.2,7h-1.8v-.7h2.3c.2-.4.5-.9.6-1.3h.7c-.1.5-.3.9-.6,1.3h4.4v.7h-1.5c-.2.9-.6,1.7-1.2,2.2.9.4,1.8.8,2.4,1.3l-.5.6c-.6-.4-1.5-.9-2.5-1.4-.9.6-2.2,1.1-4,1.3,0-.2-.2-.5-.3-.7,1.5-.2,2.6-.5,3.5-1-.8-.3-1.7-.7-2.5-.9.3-.4.7-1,1.1-1.5h-.1ZM392.3,2.6c-.3.6-.7,1.2-1,1.7h2.4v.7h-7.2v-.7h4c.4-.5.8-1.4,1.1-1.9l.8.2h0ZM389.9.3c.3.4.5.8.7,1.2h2.8v.7h-6.5v-.7h2.8c-.2-.4-.4-.8-.6-1.1h.7s.1,0,.1-.1ZM388.4,2.3c.4.5.8,1.1.9,1.5l-.6.3c-.1-.4-.5-1.1-.9-1.6l.6-.3h0ZM389,7c-.3.4-.5.8-.8,1.2.7.2,1.4.5,2.1.8.6-.5.9-1.1,1.2-1.9h-2.5Z"/>
      <path class="st0" d="M404.1.3l.7.6c-2.1.5-5.1.8-7.9,1v1.6h8.7v.8h-8.7c0,2-.2,4.9-1.6,6.9-.1-.2-.5-.4-.7-.6,1.3-1.8,1.4-4.4,1.4-6.3V1.2c2.8-.2,6.2-.5,8-1h.1ZM404.8,6v5.1h-.8v-.6h-5.1v.6h-.8v-5.1h6.7,0ZM403.9,9.7v-3h-5.1v3h5.1Z"/>
      <path class="st0" d="M410,.3c-.2.6-.4,1.3-.6,1.8h2v7.8h-3.4v1h-.7V2.1h1.3c.2-.6.4-1.4.5-1.9l.9.2h0ZM408,5.4h2.6v-2.6h-2.6v2.6ZM410.7,9.1v-3h-2.6v3h2.6ZM414.2.3c-.1.6-.3,1.2-.5,1.8h3.6v.4c-.2,5.5-.4,7.3-.8,7.9-.3.3-.5.4-.9.5h-1.8c0-.2-.1-.6-.3-.8h1.8c.3,0,.4,0,.5-.2.4-.4.6-2.3.7-7.2h-3.1c-.3.8-.7,1.6-1.1,2.2-.1,0-.5-.3-.7-.5.8-1.1,1.5-2.7,1.8-4.4l.8.2h0ZM413.5,4.7c.7.9,1.5,2,1.9,2.7l-.7.4c-.4-.7-1.2-1.9-1.8-2.8l.6-.4h0Z"/>
      <path class="st0" d="M420.5,7.5c-.3.8-.8,1.7-1.2,2.3-.1-.1-.4-.3-.6-.4.5-.5.9-1.3,1.1-2l.7.2h0ZM423.5,2.4c-.2.6-.5,1.3-.7,1.8h1.6v.7h-2.4v1.3h2.3v.7h-2.3v3.1c0,.4,0,.6-.3.7-.3.1-.7.1-1.2.1,0-.2-.1-.5-.2-.7h.9s.1,0,.1-.1v-3.1h-2.4v-.7h2.4v-1.3h-2.5v-.7h3.3c.2-.6.5-1.4.7-2h.7s0,.2,0,.2ZM421.5,0c.2.4.5.9.7,1.3h2v.7h-5.2v-.7h2.4c-.1-.4-.4-.8-.6-1.1,0,0,.7-.2.7-.2ZM420.4,2.2c.3.5.5,1.3.5,1.7l-.7.2c0-.5-.2-1.2-.5-1.8h.7ZM423,7.3c.4.6.8,1.4,1,1.9l-.6.3c-.2-.5-.6-1.4-1-2l.6-.3h0ZM428.5.4l.7.6c-1,.4-2.4.7-3.7.9v2.4h4.1v.7h-1.4v6.1h-.8v-6.1h-1.9v.4c0,1.7-.1,4-1.2,5.6-.1-.1-.5-.4-.6-.5,1-1.4,1.1-3.5,1.1-5.1V1.3c1.3-.2,2.9-.6,3.7-.9h0Z"/>
      <path class="st0" d="M432.6.3c0,.5-.2,1-.3,1.5h2.9v.7h-1.5v2.6h1.8v.8h-1.8c0,.3,0,.7-.1,1,.4.4,1.7,1.9,2,2.3l-.5.7c-.3-.5-1.1-1.5-1.6-2.2-.4,1.2-1,2.4-2.2,3.4-.1-.1-.4-.4-.6-.6,1.6-1.3,2.2-3,2.3-4.6h-2v-.8h2.1v-2.6h-.8c-.2.8-.5,1.5-.8,2-.1,0-.5-.3-.7-.4.6-1,1-2.5,1.2-3.9h.8-.2q0,0,0,.1ZM441.2,1.6h-4.5v1.9h4v3.9h-4v2.4h4.8v.8h-5.5V.8h5.4v.8h-.2,0ZM436.7,6.7h3.2v-2.4h-3.2v2.4Z"/>
      <path class="st0" d="M445.9.7h.1l.5.3c-.4,1-.8,2.2-1.2,3.1.9,1,1.1,1.9,1.1,2.6s-.1,1.1-.5,1.4c-.1.1-.4.2-.6.2h-.8c0-.2,0-.5-.2-.7h1.1c.2,0,.3-.5.3-.8,0-.7-.2-1.5-1.1-2.5.4-.9.7-1.9,1-2.7h-1.7v9.7h-.7V.7h2.7ZM450.1,8v-2h-1.6c-.5,0-.9,0-1,.2,0-.2-.2-.6-.3-.8.2,0,.4-.4.6-1s.5-1.1.8-2.1h-1.8v-.7h2c.1-.5.3-1,.4-1.4l.8.2c-.1.4-.2.8-.4,1.2h3.7v.7h-3.9c-.4,1.1-.8,2.1-1.2,2.9h1.8v-1.8h.8v1.8h2.3v.7h-2.3v2h2.7v.8h-2.7v2.3h-.8v-2.3h-3.4v-.8h3.5Z"/>
    </g>
    <g>
      <g>
        <rect class="st3" x="359.2" y="16.5" width="105.8" height="105.8"/>
        <line class="st3" x1="465" y1="51.8" x2="359.2" y2="51.8"/>
        <line class="st3" x1="465" y1="87" x2="359.2" y2="87"/>
        <line class="st3" x1="394.5" y1="122.3" x2="394.5" y2="16.5"/>
        <line class="st3" x1="429.7" y1="122.3" x2="429.7" y2="16.5"/>
      </g>
      <g>
        <rect class="st4" x="359.2" y="122.3" width="105.8" height="70.5"/>
        <line class="st4" x1="465" y1="157.5" x2="359.2" y2="157.5"/>
        <line class="st4" x1="394.5" y1="192.8" x2="394.5" y2="122.3"/>
        <line class="st4" x1="429.7" y1="192.8" x2="429.7" y2="122.3"/>
      </g>
    </g>
  </g>
  <g>
    <path class="st2" d="M319.2,89.9l-45.4.3c-.2,0-.4-.2-.4-.4v-14.9c0-.2.2-.4.4-.4l45.4.3c.2,0,.4.2.4.4v14.4c0,.2-.2.4-.4.4h0Z"/>
    <polygon class="st2" points="333.1 82.2 317.1 94.1 317.1 70.3 333.1 82.2"/>
    <g>
      <path class="st1" d="M279.9,81.1c.2,0,.3-.2.5-.5.2-.3.8-1.4,1.1-2.5l.8.4c-.3.9-.8,1.8-1.3,2.5h.9c.2-.4.4-.7.5-1l.7.4c-.5.9-1.1,1.8-1.7,2.6l1.4-.3c0,.2,0,.5,0,.7-2,.4-2.3.5-2.5.6,0-.2-.2-.5-.3-.7.2,0,.4-.3.7-.6.1-.2.4-.6.8-1.1-.9.1-1.1.2-1.2.2,0-.2-.2-.6-.3-.8ZM282.7,84.3v.6c.9-1.6,1.1-4,1.1-6.8h.9c0,1.5,0,2.8-.2,4,.4.6.8,1.3,1,1.7.5-1.5.6-3.4.6-5.7h.9c0,1.1,0,2.1-.1,3,.2,1.5.6,3.4,1.5,4.5-.2.2-.5.5-.6.7-.6-.8-1-1.8-1.2-3-.3,1.2-.7,2.2-1.4,3-.1-.1-.6-.5-.8-.6.5-.5.9-1.1,1.1-1.9l-.6.4c-.1-.3-.3-.7-.5-1.1-.2,1.2-.6,2.2-1.2,3.1-.1-.1-.6-.4-.8-.6.2-.3.4-.5.5-.8l-2.6.9-.2-.8c.7-.2,1.7-.5,2.7-.8Z"/>
      <path class="st1" d="M293.5,78.3c-.2.5-.4.9-.7,1.4h3.9v5.7c0,.5-.1.8-.4.9-.3.1-.9.2-1.7.2,0-.2-.2-.6-.3-.9.6,0,1.2,0,1.4,0,.2,0,.2,0,.2-.2v-4.9h-5.6v5.9h-.8v-6.8h2.5c.2-.5.4-1.1.5-1.5l1.1.2ZM294.8,81.5v3h-2.7v.6h-.8v-3.6h3.5ZM292,83.8h2v-1.5h-2v1.5Z"/>
      <path class="st1" d="M299.7,78.2v1.7h.8v.8h-.8v1.6l.7-.2v.8c.1,0-.7.3-.7.3v2.3c0,.4,0,.7-.3.8-.2.1-.6.2-1.2.2,0-.2-.1-.6-.2-.8.3,0,.7,0,.8,0,.1,0,.2,0,.2-.2v-2.1l-1,.3-.2-.8,1.2-.3v-1.8h-1v-.8h1v-1.7h.8ZM305.6,78.5c-.3.5-.6,1.1-.8,1.6h1.1v.8h-1v1.6h1.2v.8h-1.2v3.2h-.8v-3.2h-1.2c0,1.1-.5,2.4-1.7,3.3-.1-.2-.4-.5-.6-.6,1.1-.7,1.4-1.7,1.5-2.7h-1.3v-.8h1.3v-1.6h-1v-.8h1.2c-.1-.4-.4-1-.7-1.5l.7-.3c.3.5.7,1.1.8,1.5l-.7.3h1.6c.3-.5.6-1.3.8-1.8l.9.3ZM302.8,80.8v1.6h1.1v-1.6h-1.1Z"/>
      <path class="st1" d="M308.5,78.2v1.7h.8v.8h-.8v1.6l.7-.2v.8c.1,0-.7.3-.7.3v2.4c0,.4,0,.6-.3.8-.2.1-.6.2-1.1.2,0-.2-.1-.6-.2-.8.3,0,.7,0,.8,0s.2,0,.2-.2v-2.1l-.9.3-.2-.8c.3,0,.7-.2,1.1-.3v-1.8h-1v-.8h1v-1.7h.8ZM310.7,83.4h-1.3v-.7h1.7c.2-.3.3-.6.4-.9l.8.2c0,.2-.2.5-.4.7h3.1v.7h-1c-.2.6-.4,1.1-.8,1.5.6.3,1.2.6,1.6.8l-.5.6c-.4-.3-1-.6-1.7-.9-.7.5-1.7.7-2.9.9,0-.2-.2-.5-.3-.7,1,0,1.8-.3,2.4-.6-.6-.3-1.2-.5-1.8-.6.2-.3.5-.7.7-1.1ZM314,80c-.2.4-.4.8-.6,1.1h1.6v.7h-5.4v-.7h1.5c-.1-.3-.3-.7-.6-1.1l.7-.3c.3.3.5.8.6,1.1l-.6.2h1.4c.2-.4.5-.9.7-1.3l.8.2ZM312.3,78.2c.2.2.3.5.4.8h2v.7h-4.9v-.7h2c-.1-.2-.2-.5-.4-.7h.8ZM311.5,83.4c-.2.3-.3.5-.4.7.4.1.9.3,1.3.5.3-.3.6-.7.7-1.2h-1.6Z"/>
    </g>
  </g>
</svg>